<svg t="1784697603869" class="icon" viewBox="0 0 1024 1024" version="1.1" xmlns="http://www.w3.org/2000/svg" p-id="52623" data-spm-anchor-id="a313x.search_index.0.i23.51ab3a817s9oPM" width="200" height="200"><path d="M928 384H98c-13.8 0-25-11.2-25-25s11.2-25 25-25h830c13.8 0 25 11.2 25 25s-11.2 25-25 25z" fill="#48EF7E" p-id="52624"></path><path d="M895.2 703.9H129c-0.6 0-1-0.4-1-1V383.8h768.1v319.1c0.1 0.5-0.4 1-0.9 1z" fill="#FFFFFF" p-id="52625"></path><path d="M895.2 728.9H129c-14.3 0-26-11.7-26-26V358.8h818.1v344.1c0.1 14.3-11.6 26-25.9 26z m-742.2-50h718.1V408.8H153v270.1z" fill="#666666" p-id="52626"></path><path d="M231 383.8h50v131.8h-50zM359.1 384.1h50v128h-50zM486.3 384.1h50v127.5h-50zM615.2 383.8h50v126.3h-50zM744.1 384.1h50v127.5h-50z" fill="#666666" p-id="52627"></path></svg>